<svg width="20" height="20" viewBox="0 0 20 20" fill="none" xmlns="http://www.w3.org/2000/svg">
<path d="M9.80637 5.18185C11.2708 3.71738 13.6454 3.71738 15.1099 5.18185C16.5741 6.64626 16.5741 9.02017 15.1099 10.4846L10.0831 15.5122C9.11692 16.4784 7.54985 16.4784 6.58371 15.5122C5.61757 14.5461 5.61757 12.979 6.58371 12.0129L11.0954 7.502C11.4209 7.17656 11.9484 7.17656 12.2738 7.502C12.5992 7.82744 12.5992 8.35496 12.2738 8.68038L7.7621 13.1921C7.44733 13.5073 7.44734 14.0179 7.7621 14.333C8.07736 14.6483 8.58859 14.6483 8.90386 14.333L13.9315 9.30619C14.7448 8.49266 14.7448 7.17377 13.9315 6.36023C13.1179 5.54664 11.7983 5.54664 10.9848 6.36023L5.57134 11.7736C5.36613 11.9788 5.25036 12.1492 5.19048 12.2522C5.16046 12.3038 5.14359 12.3397 5.13677 12.3555C5.135 12.3596 5.13401 12.3624 5.13351 12.3636C5.13396 12.3624 5.13462 12.3595 5.13596 12.3555C5.13659 12.3536 5.13759 12.3515 5.1384 12.349C5.1388 12.3477 5.13958 12.3464 5.14003 12.3449L5.11236 12.4198C4.94797 12.8088 4.51228 13.0178 4.09999 12.891C3.66022 12.7556 3.41295 12.2891 3.54823 11.8493L4.20497 12.0511C3.59877 11.8644 3.5525 11.8499 3.54904 11.8485V11.8469C3.54932 11.846 3.54956 11.8446 3.54986 11.8436C3.55044 11.8418 3.55164 11.84 3.5523 11.8379C3.55362 11.8338 3.55473 11.829 3.55637 11.8241C3.55973 11.8141 3.5638 11.8021 3.56857 11.7891C3.57809 11.7632 3.59088 11.7316 3.60682 11.6947C3.63886 11.6205 3.68536 11.5252 3.75005 11.4139C3.87977 11.1909 4.0826 10.9056 4.39295 10.5953L9.80637 5.18185Z" fill="#0E151C"/>
</svg>
