<svg width="32" height="32" viewBox="0 0 32 32" fill="none" xmlns="http://www.w3.org/2000/svg">
<path d="M12.9648 7.65812C14.1181 4.19796 18.7314 4.77486 18.7314 8.23509" stroke="#E84A45" stroke-width="1.77778"/>
<path d="M18.7305 9.05926C24.7385 7.05725 26.8342 17.6601 23.8855 23.5085C23.4903 24.2923 22.8141 24.9251 21.9367 24.9492C21.0629 24.9733 20.0617 24.8138 19.6538 24.8138" stroke="#E84A45" stroke-width="2.66667"/>
<path d="M12.9178 7.11627C15.0049 6.46881 17.4766 6.6486 19.4403 8.06646C21.4661 9.52941 22.4589 11.874 22.8934 14.5059C23.3289 17.1438 23.2494 20.333 22.8993 23.8526C22.7675 25.1766 21.7491 26.2625 20.4071 26.4483C17.9961 26.782 16.0558 26.8093 14.2235 26.4756C12.3899 26.1417 10.7747 25.4657 9.0067 24.544C8.34135 24.197 7.81933 23.5961 7.5858 22.8516C7.23665 21.7384 7.03658 20.7225 7.05162 19.6485C7.06621 18.6091 7.2819 17.6161 7.62877 16.5313C7.49856 14.6408 7.68837 13.0194 8.13267 11.6514C8.89108 9.31663 10.8289 7.76446 12.9178 7.11627Z" fill="#E84A45"/>
<path d="M6.90104 18.0047C6.62378 19.5369 6.60111 21.229 6.86634 22.7503C7.03477 23.7165 7.74645 24.4765 8.66223 24.8274C10.7544 25.629 13.2077 26.3008 15.4311 26.4466C16.0238 26.4854 16.5197 26.0307 16.5805 25.4399C16.79 23.4054 16.904 21.6175 16.4072 20.2684C16.1629 19.605 15.7206 18.8049 15.1085 18.3204C13.9004 17.3641 11.476 16.6729 8.99997 16.4497C7.9963 16.3592 7.08048 17.013 6.90104 18.0047Z" fill="#BD3B37" stroke="#BD3B37" stroke-width="1.77778"/>
<path d="M16.4073 13.0338C15.127 12.4719 13.3984 12.0729 11.6393 11.9093" stroke="#BD3B37" stroke-width="2.66667" stroke-linecap="round"/>
</svg>
