<svg width="29" height="28" viewBox="0 0 29 28" fill="none" xmlns="http://www.w3.org/2000/svg">
<circle cx="14.0336" cy="14" r="14" fill="#0E151C"/>
<path d="M8.34019 5.72705C7.97515 5.72705 7.82914 5.88163 7.82914 6.26809L7.82913 12.0649C7.82913 12.3741 7.97513 12.5287 8.34018 12.5287H12.0635C12.3556 12.5287 12.5016 12.3741 12.5016 12.0649V10.9828C12.5016 10.2099 13.3941 9.5916 14.0906 10.2099C14.7871 10.8283 16.6246 12.5013 18.0501 13.9199C23.1606 9.97806 20.6054 5.72705 18.0501 5.72705H8.34019Z" fill="#FFFCFB"/>
<path d="M8.34019 22.2672C7.97515 22.2672 7.82914 22.1126 7.82914 21.7262L7.82913 15.9293C7.82913 15.6202 7.97513 15.4656 8.34018 15.4656H12.0635C12.3556 15.4656 12.5016 15.6202 12.5016 15.9293V17.0114C12.5016 17.7843 13.3941 18.4027 14.0906 17.7843C14.7871 17.166 16.6246 15.493 18.0501 14.0744C23.1606 18.0162 20.6054 22.2672 18.0501 22.2672H8.34019Z" fill="#FFFCFB"/>
</svg>
