<svg width="20" height="20" viewBox="0 0 20 20" fill="none" xmlns="http://www.w3.org/2000/svg">
<path d="M5.58542 4.75213C5.3553 4.75213 5.16875 4.93868 5.16875 5.16879V12.4933C5.16875 12.7234 5.3553 12.91 5.58542 12.91H6.77553C6.86758 12.91 6.94219 12.9846 6.94219 13.0766V14.7444L8.72778 12.9588C8.75904 12.9275 8.80143 12.91 8.84563 12.91H14.3287C14.5588 12.91 14.7453 12.7234 14.7453 12.4933V5.16879C14.7453 4.93868 14.5588 4.75213 14.3287 4.75213H5.58542ZM16.1641 12.91C16.1641 13.6935 15.5289 14.3287 14.7453 14.3287H9.36405L7.33983 16.3529C6.66952 17.0232 5.52348 16.5485 5.52344 15.6006V14.3287H5.16875C4.3852 14.3287 3.75 13.6935 3.75 12.91V4.75213C3.75 3.96857 4.3852 3.33337 5.16875 3.33337H14.7453C15.5289 3.33337 16.1641 3.96857 16.1641 4.75213V12.91Z" fill="#0E151C"/>
<path d="M12.5002 6.25004C12.9603 6.25012 13.3335 6.62319 13.3335 7.08337C13.3335 7.54356 12.9603 7.91662 12.5002 7.91671H7.33333C6.8731 7.91671 6.5 7.54361 6.5 7.08337C6.5 6.62314 6.8731 6.25004 7.33333 6.25004H12.5002Z" fill="black"/>
<path d="M10.6667 9.58337C11.1269 9.58337 11.5 9.95647 11.5 10.4167C11.5 10.8769 11.1269 11.25 10.6667 11.25H7.33333C6.8731 11.25 6.5 10.8769 6.5 10.4167C6.5 9.95647 6.8731 9.58337 7.33333 9.58337H10.6667Z" fill="black"/>
</svg>
