<svg width="32" height="32" viewBox="0 0 32 32" fill="none" xmlns="http://www.w3.org/2000/svg">
<rect x="5.33325" y="5.33325" width="21.3333" height="21.3333" rx="2.66667" fill="#289AF0"/>
<path d="M17.1852 20.1484C17.8398 20.1484 18.3714 20.6787 18.3714 21.3333C18.3714 21.9878 17.8398 22.5181 17.1852 22.5181H10.0745C9.41999 22.5181 8.88965 21.9878 8.88965 21.3333C8.88965 20.6787 9.41999 20.1484 10.0745 20.1484H17.1852ZM21.9261 14.815C22.5807 14.815 23.111 15.3454 23.111 15.9999C23.111 16.6545 22.5807 17.1848 21.9261 17.1848H10.0745C9.41999 17.1848 8.88965 16.6545 8.88965 15.9999C8.88965 15.3454 9.41999 14.815 10.0745 14.815H21.9261ZM21.9261 9.48169C22.5807 9.48169 23.111 10.012 23.111 10.6666C23.111 11.3211 22.5807 11.8515 21.9261 11.8515H10.0745C9.41998 11.8515 8.88965 11.3211 8.88965 10.6666C8.88965 10.012 9.41998 9.48169 10.0745 9.48169H21.9261Z" fill="white"/>
</svg>
