<svg width="16" height="16" viewBox="0 0 16 16" fill="none" xmlns="http://www.w3.org/2000/svg">
<path d="M9.98701 3.01598C10.3565 2.72051 10.8857 2.72578 11.2494 3.02835L11.3249 3.09736L13.0788 4.88642C13.3624 5.17557 13.3582 5.63994 13.069 5.92353L6.16214 12.6976C5.99636 12.8601 5.77886 12.9596 5.54756 12.9795L3.78454 13.1319C3.16933 13.1848 2.65366 12.6726 2.70186 12.057L2.83402 10.3695C2.85289 10.1287 2.9578 9.90256 3.13024 9.73343L9.91019 3.08369L9.98701 3.01598ZM4.15238 10.598L4.06123 11.7692L5.31319 11.6612L10.198 6.8708L9.09704 5.7484L4.15238 10.598ZM10.0495 4.81546L11.1504 5.9372L11.7064 5.39163L10.6055 4.26923L10.0495 4.81546Z" fill="#475467"/>
</svg>
