<svg width="32" height="32" viewBox="0 0 32 32" fill="none" xmlns="http://www.w3.org/2000/svg">
<rect x="4" y="4" width="24" height="24" rx="2.67" fill="#D8E5EE"/>
<path d="M7 12.3334C7 11.7811 7.44772 11.3334 8 11.3334H11C11.5523 11.3334 12 11.7811 12 12.3334V28H7V12.3334Z" fill="#2ACB90"/>
<path d="M13.5 16.7777C13.5 16.2254 13.9477 15.7777 14.5 15.7777H17.5C18.0523 15.7777 18.5 16.2254 18.5 16.7777V27.9999H13.5V16.7777Z" fill="#E84A45"/>
<path d="M20 9C20 8.44772 20.4477 8 21 8H24C24.5523 8 25 8.44772 25 9V28H20V9Z" fill="#2E80DE"/>
</svg>
