<svg width="16" height="16" viewBox="0 0 16 16" fill="none" xmlns="http://www.w3.org/2000/svg">
<path d="M12.6667 8C12.6667 5.42267 10.5773 3.33333 8 3.33333C6.61795 3.33333 5.37693 3.93354 4.52148 4.88932C4.02796 5.44077 3.6647 6.1096 3.47721 6.84896L3.70182 6.73698C4.03114 6.57232 4.43169 6.70584 4.59635 7.03516C4.76101 7.36448 4.62749 7.76503 4.29817 7.92969L2.96484 8.59635C2.67666 8.74044 2.32677 8.65749 2.13346 8.39974L1.13346 7.06641C0.912637 6.77186 0.972405 6.35435 1.26692 6.13346C1.56147 5.91264 1.97898 5.97241 2.19986 6.26693L2.23893 6.31901C2.49282 5.44765 2.93897 4.65813 3.52799 4C4.62568 2.77357 6.22293 2 8 2C11.3137 2 14 4.68629 14 8C14 11.3137 11.3137 14 8 14C6.22293 14 4.62568 13.2264 3.52799 12C3.2825 11.7256 3.30574 11.3041 3.58007 11.0586C3.85438 10.8132 4.27594 10.8365 4.52148 11.1107C5.37693 12.0665 6.61795 12.6667 8 12.6667C10.5773 12.6667 12.6667 10.5773 12.6667 8ZM7.33333 5.33333C7.33333 4.96514 7.6318 4.66667 8 4.66667C8.36819 4.66667 8.66666 4.96514 8.66666 5.33333V7.66667H10.3333C10.7015 7.66667 11 7.96514 11 8.33333C11 8.70152 10.7015 9 10.3333 9H8C7.6318 9 7.33333 8.70152 7.33333 8.33333V5.33333Z" fill="#344054"/>
</svg>
