<svg width="32" height="32" viewBox="0 0 32 32" fill="none" xmlns="http://www.w3.org/2000/svg">
<path d="M8.6504 13.0129C8.14196 8.86745 11.5803 5.39236 15.8413 5.33325H15.9085C20.1695 5.39236 23.6078 8.86745 23.0994 13.0129C22.591 17.1584 20.1214 17.9743 19.5403 20.2848C19.3259 21.1373 19.1026 22.5275 19.1026 22.5275L15.7349 22.5275L12.6472 22.5275C12.6472 22.5275 12.4239 21.1373 12.2095 20.2848C11.6284 17.9743 9.15883 17.1584 8.6504 13.0129Z" fill="#FACB3D"/>
<path d="M12.5262 23.3205V22H15.9682H19.2187V23.3205C19.2187 25.1686 17.9942 26.6667 16.1461 26.6667C14.298 26.6667 12.5262 25.1686 12.5262 23.3205Z" fill="#C1C1C2"/>
<path d="M16.6004 9.33325C19.2671 9.99992 19.9337 11.9999 19.2671 13.9999" stroke="#D6AD33" stroke-width="2.66667" stroke-linecap="round"/>
</svg>
