<svg width="32" height="32" viewBox="0 0 32 32" fill="none" xmlns="http://www.w3.org/2000/svg">
<path d="M8.66699 20L22.0003 20" stroke="#DD511A" stroke-width="2.66667" stroke-linecap="round"/>
<path d="M17.2167 5.47248L6.4335 7.38764C5.79703 7.50068 5.33333 8.054 5.33333 8.70043V23.3273C5.33333 23.9786 5.80393 24.5346 6.44633 24.6423L16.4463 26.3178C17.2594 26.454 18 25.8272 18 25.0028V15.6026V6.12888C18 5.71405 17.6252 5.39994 17.2167 5.47248Z" fill="#DD511A" stroke="#DD511A" stroke-width="2.66667"/>
<path d="M18.667 7.70374L25.3337 7.70374C26.0701 7.70374 26.667 8.30069 26.667 9.03707V22.963C26.667 23.6994 26.0701 24.2963 25.3337 24.2963H18.667" stroke="#DD511A" stroke-width="2.66667"/>
<path d="M10.6934 17.0878V15.7054H12.4158C12.6349 15.7054 12.8351 15.6601 13.0164 15.5694C13.1977 15.4788 13.3412 15.3466 13.447 15.1728C13.5527 14.9991 13.6056 14.7875 13.6056 14.5382C13.6056 14.2965 13.5527 14.0888 13.447 13.915C13.3412 13.7413 13.1977 13.6091 13.0164 13.5184C12.8351 13.4278 12.6349 13.3824 12.4158 13.3824H10.6934V12H12.6764C13.1826 12 13.6396 12.102 14.0475 12.3059C14.4555 12.5099 14.7765 12.8045 15.0107 13.1898C15.2524 13.5675 15.3733 14.017 15.3733 14.5382C15.3733 15.0595 15.2524 15.5127 15.0107 15.898C14.7765 16.2757 14.4555 16.5703 14.0475 16.7819C13.6396 16.9858 13.1826 17.0878 12.6764 17.0878H10.6934ZM9.33365 20V12H11.1127V20H9.33365Z" fill="white"/>
<path d="M20.0006 17.3333C21.4734 17.3333 22.6673 16.1394 22.6673 14.6667H20.0006V12C18.5279 12 17.334 13.1939 17.334 14.6667C17.334 16.1394 18.5279 17.3333 20.0006 17.3333Z" fill="#DD511A"/>
<path d="M22.0006 12.6664V11.4506C22.568 11.6515 23.0165 12.099 23.2174 12.6664H22.0006Z" stroke="#DD511A" stroke-width="1.33333"/>
</svg>
