<svg width="32" height="32" viewBox="0 0 32 32" fill="none" xmlns="http://www.w3.org/2000/svg">
<path d="M5.78572 12.5V24.2857C5.78572 25.1536 6.48927 25.8571 7.35715 25.8571H24.6429C25.5107 25.8571 26.2143 25.1536 26.2143 24.2857V12.5H20.7143L16 7L11.2857 12.5H5.78572Z" fill="#F5EDBB"/>
<path d="M10.5 13.2857H5L7.35714 9.35714H14.4286L16 7L17.5714 9.35714H24.6429L27 13.2857H21.5L17.5714 9.35714L16 7L14.4286 9.35714L10.5 13.2857Z" fill="#F27144"/>
<path d="M14.4286 9.35714H7.35714L5 13.2857H10.5L14.4286 9.35714ZM14.4286 9.35714L16 7L17.5714 9.35714M17.5714 9.35714H24.6429L27 13.2857H21.5L17.5714 9.35714Z" stroke="#F17043" stroke-width="2.35714" stroke-linecap="round" stroke-linejoin="round"/>
<circle cx="16" cy="14.8572" r="2.35714" fill="white" stroke="#FACB3D" stroke-width="1.57143"/>
<rect x="11.2857" y="19.5714" width="9.42857" height="6.28571" fill="#909AA4"/>
<path d="M20.7143 25.8571V20.3571C20.7143 19.9232 20.3625 19.5714 19.9286 19.5714H16M11.2857 25.8571V20.3571C11.2857 19.9232 11.6375 19.5714 12.0714 19.5714H16M16 19.5714V25.8571" stroke="#FACB3D" stroke-width="1.57143"/>
</svg>
