<svg width="32" height="32" viewBox="0 0 32 32" fill="none" xmlns="http://www.w3.org/2000/svg">
<rect x="5.33359" y="5.33325" width="21.3333" height="21.3333" rx="2.66667" fill="#F0B732"/>
<path d="M21.3336 9.33325C22.0699 9.33325 22.6664 9.93003 22.6666 10.6663V21.3333C22.6666 22.0696 22.07 22.6663 21.3336 22.6663H10.6666C9.93037 22.6661 9.33359 22.0695 9.33359 21.3333V10.6663C9.33376 9.93014 9.93047 9.33343 10.6666 9.33325H21.3336ZM13.6861 18.5901C13.6558 18.6958 13.6605 18.8095 13.6998 18.9124L14.2555 20.3596C14.3664 20.648 14.7018 20.7567 14.9459 20.5833L16.1646 19.717C16.2527 19.6493 16.3188 19.5513 16.3512 19.4387L17.732 14.6282L15.0641 13.7883L13.6861 18.5901ZM16.36 11.3596C16.0575 11.2622 15.7372 11.4433 15.6451 11.7639L15.398 12.6272L18.066 13.4661L18.3082 12.6223C18.3999 12.3019 18.2294 11.9633 17.9273 11.8655L16.36 11.3596Z" fill="white"/>
</svg>
