<svg width="32" height="32" viewBox="0 0 32 32" fill="none" xmlns="http://www.w3.org/2000/svg">
<path d="M15.8672 5.3335C21.6839 5.33374 26.3994 10.0483 26.3994 15.8638C26.3994 17.7164 25.9183 19.456 25.0781 20.9683C25.0915 22.8766 25.5169 24.08 26.6221 25.7563C26.7614 25.9678 26.561 26.2451 26.3184 26.1724L21.5342 24.7368C19.8976 25.7838 17.9542 26.394 15.8672 26.394C10.0503 26.394 5.33402 21.6794 5.33398 15.8638C5.33398 10.0481 10.0503 5.3335 15.8672 5.3335Z" fill="#296C81"/>
<path d="M15.8672 5.3335L15.8672 4.66683H15.8672V5.3335ZM26.3994 15.8638L27.0661 15.8638V15.8638H26.3994ZM25.0781 20.9683L24.4954 20.6445L24.4102 20.7977L24.4115 20.9729L25.0781 20.9683ZM26.6221 25.7563L27.1787 25.3895L27.1787 25.3894L26.6221 25.7563ZM26.3184 26.1724L26.1268 26.8109L26.1268 26.8109L26.3184 26.1724ZM21.5342 24.7368L21.7258 24.0983L21.4327 24.0103L21.1749 24.1752L21.5342 24.7368ZM15.8672 26.394V27.0607H15.8672L15.8672 26.394ZM5.33398 15.8638H4.66732V15.8638L5.33398 15.8638ZM15.8672 5.3335L15.8672 6.00016C21.3158 6.00039 25.7327 10.4166 25.7327 15.8638H26.3994H27.0661C27.0661 9.67997 22.0519 4.66709 15.8672 4.66683L15.8672 5.3335ZM26.3994 15.8638L25.7327 15.8638C25.7327 17.5995 25.2823 19.228 24.4954 20.6445L25.0781 20.9683L25.6609 21.292C26.5544 19.6839 27.0661 17.8333 27.0661 15.8638L26.3994 15.8638ZM25.0781 20.9683L24.4115 20.9729C24.4185 21.9787 24.5347 22.828 24.8073 23.6575C25.0787 24.483 25.4949 25.2578 26.0655 26.1233L26.6221 25.7563L27.1787 25.3894C26.6441 24.5785 26.295 23.9135 26.074 23.2411C25.8543 22.5727 25.7511 21.8661 25.7448 20.9636L25.0781 20.9683ZM26.6221 25.7563L26.0654 26.1232C25.9639 25.9691 25.9945 25.7886 26.0743 25.6789C26.1553 25.5674 26.3252 25.4784 26.5099 25.5338L26.3184 26.1724L26.1268 26.8109C26.9935 27.0709 27.6451 26.0971 27.1787 25.3895L26.6221 25.7563ZM26.3184 26.1724L26.51 25.5338L21.7258 24.0983L21.5342 24.7368L21.3426 25.3754L26.1268 26.8109L26.3184 26.1724ZM21.5342 24.7368L21.1749 24.1752C19.6417 25.1561 17.8223 25.7273 15.8672 25.7274L15.8672 26.394L15.8672 27.0607C18.0862 27.0606 20.1536 26.4115 21.8935 25.2984L21.5342 24.7368ZM15.8672 26.394V25.7274C10.4183 25.7274 6.00069 21.311 6.00065 15.8638L5.33398 15.8638L4.66732 15.8638C4.66736 22.0477 9.68231 27.0607 15.8672 27.0607V26.394ZM5.33398 15.8638H6.00065C6.00065 10.4165 10.4183 6.00016 15.8672 6.00016V5.3335V4.66683C9.68229 4.66683 4.66732 9.67977 4.66732 15.8638H5.33398Z" fill="#296C81"/>
<path d="M12.3111 11.0669C12.0893 11.0669 12.0007 11.1608 12.0007 11.3955L12.0007 14.9163C12.0007 15.1041 12.0893 15.198 12.311 15.198H14.5725C14.7499 15.198 14.8386 15.1041 14.8386 14.9163V14.2591C14.8386 13.7897 15.3806 13.4141 15.8037 13.7897C16.2267 14.1652 17.3427 15.1813 18.2086 16.043C21.3125 13.6488 19.7606 11.0669 18.2086 11.0669H12.3111Z" fill="white"/>
<path d="M12.3111 21.1128C12.0893 21.1128 12.0007 21.0189 12.0007 20.7842L12.0007 17.2634C12.0007 17.0756 12.0893 16.9817 12.311 16.9817H14.5725C14.7499 16.9817 14.8386 17.0756 14.8386 17.2634V17.9206C14.8386 18.39 15.3806 18.7656 15.8037 18.39C16.2267 18.0145 17.3427 16.9983 18.2086 16.1367C21.3125 18.5309 19.7606 21.1128 18.2086 21.1128H12.3111Z" fill="white"/>
</svg>
