<svg width="32" height="32" viewBox="0 0 32 32" fill="none" xmlns="http://www.w3.org/2000/svg">
<rect x="5.3336" y="5.33337" width="21.3333" height="21.3333" rx="2.66667" fill="#1EC194"/>
<path d="M18.3124 11.8792L18.3696 11.8852C18.4996 11.9117 18.5976 12.0265 18.5976 12.1644C18.5976 12.3022 18.4996 12.417 18.3696 12.4435L18.3124 12.4496L13.6894 12.4496C13.5319 12.4496 13.4042 12.3218 13.4042 12.1644C13.4042 12.0069 13.5319 11.8792 13.6894 11.8792L18.3124 11.8792Z" fill="#1EC194"/>
<path d="M16.8481 15.8305C16.9217 15.6833 17.1012 15.6237 17.2484 15.6973C17.3954 15.771 17.4551 15.9498 17.3816 16.0969L17.3229 16.2045C16.6798 17.2822 15.0067 17.2462 14.432 16.0969C14.3584 15.9497 14.418 15.771 14.5652 15.6973C14.7124 15.6237 14.8911 15.6833 14.9647 15.8305C15.3382 16.5774 16.4745 16.5773 16.8481 15.8305Z" fill="#1EC194"/>
<path fill-rule="evenodd" clip-rule="evenodd" d="M15.7409 9.07178C15.8706 8.98742 16.0392 8.98752 16.169 9.07178L16.23 9.12068L17.7484 10.6083L19.2059 10.1335L19.2593 10.1199C19.5261 10.0715 19.7694 10.3088 19.713 10.5857L19.1999 13.0974C19.2267 13.1537 19.2423 13.2159 19.2398 13.2809C19.1856 14.6331 19.0622 15.7547 18.7589 16.6007C18.5099 17.2953 18.1286 17.8281 17.5535 18.1455C17.6526 18.227 17.7867 18.3013 17.9644 18.3727C18.1457 18.4457 18.3532 18.5083 18.5874 18.5751C18.8158 18.6403 19.0724 18.7104 19.3248 18.7926C19.8303 18.9573 20.3779 19.1897 20.8161 19.6188C21.2647 20.0581 21.5677 20.6718 21.6401 21.5383C21.6782 21.995 21.3036 22.3419 20.8861 22.3419H11.0238C10.6064 22.3418 10.2317 21.995 10.2699 21.5383L10.2864 21.3787C10.3809 20.5958 10.6733 20.0306 11.0938 19.6188C11.532 19.1897 12.0797 18.9573 12.5851 18.7926C12.8375 18.7103 13.0941 18.6403 13.3225 18.5751C13.5567 18.5083 13.7642 18.4457 13.9456 18.3727C14.1228 18.3015 14.2559 18.2267 14.3549 18.1455C13.7804 17.8281 13.399 17.2949 13.1502 16.6007C12.8472 15.7547 12.725 14.6331 12.6709 13.2809C12.6684 13.2163 12.6828 13.1542 12.7093 13.0981L12.1969 10.5857C12.1406 10.3087 12.3845 10.0712 12.6514 10.1199L12.7048 10.1335L14.1608 10.6083L15.6799 9.12068L15.7409 9.07178ZM16.771 18.4179C16.5174 18.4644 16.2452 18.4826 15.9538 18.4728C15.6631 18.4824 15.3913 18.465 15.1382 18.4186C14.9179 18.7522 14.5744 18.9503 14.233 19.0876C14.0109 19.1769 13.7694 19.2491 13.534 19.3163C13.2926 19.3852 13.0582 19.4483 12.8237 19.5247C12.3551 19.6774 11.9431 19.8654 11.6325 20.1696C11.3369 20.4593 11.1051 20.8841 11.0419 21.5714H20.868C20.8048 20.8838 20.5732 20.4585 20.2774 20.1688C19.9668 19.8648 19.5548 19.6774 19.0863 19.5247C18.8517 19.4483 18.6173 19.3852 18.3759 19.3163C18.1405 19.2491 17.899 19.1769 17.6769 19.0876C17.3353 18.9501 16.9912 18.7519 16.771 18.4179Z" fill="white"/>
<path d="M21.4097 21.8787C21.1284 18.5088 17.1104 19.9644 17.0754 17.9152H15.1421C15.1072 19.9644 11.0892 18.5088 10.8078 21.8787C10.7901 22.0907 10.9648 22.2651 11.1776 22.2651H21.04C21.2528 22.2651 21.4274 22.0907 21.4097 21.8787Z" fill="white"/>
<path d="M15.9861 11.6251C16.5417 11.6244 17.0446 11.7084 17.6182 11.8621C18.0292 11.9722 18.2731 12.3946 18.1629 12.8057C18.0596 13.1911 17.6817 13.4296 17.2961 13.367L17.2194 13.3504L16.877 13.2669C16.5527 13.1967 16.2757 13.1657 15.9876 13.1661C15.5942 13.1666 15.1466 13.2258 14.4925 13.361C14.0758 13.447 13.6681 13.1787 13.582 12.762C13.496 12.3453 13.7643 11.9377 14.181 11.8516C14.8745 11.7083 15.4398 11.6258 15.9861 11.6251Z" fill="#1EC194"/>
</svg>
