<svg width="32" height="32" viewBox="0 0 32 32" fill="none" xmlns="http://www.w3.org/2000/svg">
<path d="M19.0491 25.0757C13.8926 18.3358 10.3416 14.6942 3.48654 9.67723C3.09987 9.39425 3.05256 8.8331 3.3894 8.49232L7.41633 4.41832C7.73891 4.09197 8.2634 4.11633 8.52651 4.46766C13.6627 11.3259 17.3538 14.841 24.2138 19.9594C24.563 20.22 24.5903 20.7397 24.2701 21.0637L20.2288 25.1522C19.8945 25.4904 19.338 25.4533 19.0491 25.0757Z" fill="white" stroke="#DBDCDD" stroke-width="1.5"/>
<mask id="mask0_593_38050" style="mask-type:alpha" maskUnits="userSpaceOnUse" x="3" y="4" width="22" height="22">
<path d="M19.0491 25.0757C13.8926 18.3358 10.3416 14.6942 3.48654 9.67723C3.09987 9.39425 3.05256 8.8331 3.3894 8.49232L7.41633 4.41832C7.73891 4.09197 8.2634 4.11633 8.52651 4.46766C13.6627 11.3259 17.3538 14.841 24.2138 19.9594C24.563 20.22 24.5903 20.7397 24.2701 21.0637L20.2288 25.1522C19.8945 25.4904 19.338 25.4533 19.0491 25.0757Z" fill="#FACB3D"/>
</mask>
<g mask="url(#mask0_593_38050)">
<path d="M14.0961 10.4349C12.6181 12.2854 11.5917 13.3818 9.4109 15.1201L13.521 18.8069C14.985 16.9959 15.9516 16.0171 18.0004 14.3394L14.0961 10.4349Z" fill="#E84A45"/>
</g>
<path d="M17.2134 11.0808L16.0522 8.41415C15.9982 8.29015 15.8226 8.2889 15.766 8.41171C15.0988 9.85745 14.607 10.7254 13.3152 11.9967C14.3207 13.5086 14.7169 13.9138 16.4387 15.1202C17.3812 13.8232 18.201 13.2423 19.9306 12.5689C20.0625 12.5176 20.0664 12.3307 19.9361 12.2758L17.2959 11.1624C17.259 11.1468 17.2295 11.1176 17.2134 11.0808Z" fill="#E84A45"/>
<path d="M19.0491 25.0757C13.8926 18.3358 10.3416 14.6942 3.48654 9.67723C3.09987 9.39425 3.05256 8.8331 3.3894 8.49232L7.41633 4.41832C7.73891 4.09197 8.2634 4.11633 8.52651 4.46766C13.6627 11.3259 17.3538 14.841 24.2138 19.9594C24.563 20.22 24.5903 20.7397 24.2701 21.0637L20.2288 25.1522C19.8945 25.4904 19.338 25.4533 19.0491 25.0757Z" stroke="#DBDCDD" stroke-width="1.5"/>
</svg>
