<svg width="32" height="32" viewBox="0 0 32 32" fill="none" xmlns="http://www.w3.org/2000/svg">
<path d="M15.8669 5.33337C21.6836 5.33362 26.3991 10.0482 26.3991 15.8636C26.3991 17.7162 25.918 19.4558 25.0778 20.9681C25.0912 22.8765 25.5165 24.0799 26.6217 25.7562C26.7611 25.9677 26.5607 26.245 26.318 26.1722L21.5339 24.7367C19.8973 25.7837 17.9539 26.3938 15.8669 26.3939C10.05 26.3939 5.3337 21.6792 5.33366 15.8636C5.33366 10.048 10.05 5.33337 15.8669 5.33337Z" fill="white"/>
<path d="M15.8669 5.33337L15.8669 4.58337H15.8669V5.33337ZM26.3991 15.8636L27.1491 15.8637V15.8636H26.3991ZM25.0778 20.9681L24.4222 20.6039L24.3264 20.7762L24.3278 20.9734L25.0778 20.9681ZM26.6217 25.7562L27.248 25.3435L27.2479 25.3434L26.6217 25.7562ZM26.318 26.1722L26.1025 26.8906L26.1026 26.8906L26.318 26.1722ZM21.5339 24.7367L21.7494 24.0183L21.4197 23.9194L21.1297 24.1049L21.5339 24.7367ZM15.8669 26.3939V27.1439H15.8669L15.8669 26.3939ZM5.33366 15.8636H4.58366V15.8637L5.33366 15.8636ZM15.8669 5.33337L15.8668 6.08337C21.2695 6.0836 25.6491 10.4625 25.6491 15.8636H26.3991H27.1491C27.1491 9.63381 22.0976 4.58364 15.8669 4.58337L15.8669 5.33337ZM26.3991 15.8636L25.6491 15.8636C25.6491 17.5847 25.2025 19.1994 24.4222 20.6039L25.0778 20.9681L25.7334 21.3324C26.6335 19.7122 27.1491 17.8477 27.1491 15.8637L26.3991 15.8636ZM25.0778 20.9681L24.3278 20.9734C24.3349 21.9857 24.4519 22.8439 24.7278 23.6834C25.0023 24.5184 25.4227 25.3001 25.9956 26.169L26.6217 25.7562L27.2479 25.3434C26.7156 24.5359 26.3707 23.8778 26.1528 23.215C25.9364 22.5566 25.8341 21.859 25.8278 20.9629L25.0778 20.9681ZM26.6217 25.7562L25.9955 26.1689C25.7671 25.8223 26.0741 25.3161 26.5335 25.4539L26.318 26.1722L26.1026 26.8906C27.0472 27.174 27.7552 26.1131 27.248 25.3435L26.6217 25.7562ZM26.318 26.1722L26.5336 25.4539L21.7494 24.0183L21.5339 24.7367L21.3183 25.4551L26.1025 26.8906L26.318 26.1722ZM21.5339 24.7367L21.1297 24.1049C19.6094 25.0775 17.8055 25.6438 15.8668 25.6439L15.8669 26.3939L15.8669 27.1439C18.1023 27.1438 20.1852 26.4899 21.938 25.3685L21.5339 24.7367ZM15.8669 26.3939V25.6439C10.464 25.6439 6.0837 21.2648 6.08366 15.8636L5.33366 15.8636L4.58366 15.8637C4.58371 22.0937 9.63599 27.1439 15.8669 27.1439V26.3939ZM5.33366 15.8636H6.08366C6.08366 10.4625 10.464 6.08337 15.8669 6.08337V5.33337V4.58337C9.63597 4.58337 4.58366 9.6336 4.58366 15.8636H5.33366Z" fill="#DBDCDD"/>
<path d="M11.429 15.4167C11.7697 15.4168 12.1078 15.7177 12.1078 16.1667C12.1078 16.6158 11.7697 16.9167 11.429 16.9167C11.0883 16.9167 10.7503 16.6159 10.7503 16.1667C10.7503 15.7176 11.0883 15.4167 11.429 15.4167ZM16.0003 15.4167C16.341 15.4167 16.679 15.7176 16.679 16.1667C16.679 16.6159 16.341 16.9167 16.0003 16.9167C15.6596 16.9167 15.3216 16.6159 15.3216 16.1667C15.3216 15.7176 15.6596 15.4167 16.0003 15.4167ZM20.5716 15.4167C20.9123 15.4167 21.2503 15.7176 21.2503 16.1667C21.2503 16.6159 20.9123 16.9167 20.5716 16.9167C20.231 16.9167 19.8929 16.6158 19.8929 16.1667C19.8929 15.7177 20.231 15.4168 20.5716 15.4167Z" fill="#A7A8A8" stroke="#4D5052" stroke-width="1.5"/>
</svg>
