<svg width="24" height="24" viewBox="0 0 24 24" fill="none" xmlns="http://www.w3.org/2000/svg">
<path d="M11.8799 13.7606C12.2773 13.7606 12.5994 14.083 12.5996 14.4803C12.5996 14.8778 12.2774 15.2 11.8799 15.2C11.4824 15.2 11.1602 14.8778 11.1602 14.4803C11.1604 14.083 11.4825 13.7606 11.8799 13.7606ZM12.1385 8.8076C12.8155 8.86614 13.4318 9.2605 13.7699 9.85626C14.1681 10.558 14.0106 11.4398 13.4705 11.9838C13.3442 12.1109 13.2146 12.2115 13.1141 12.2881C13.0043 12.3719 12.9345 12.4237 12.8653 12.4849C12.756 12.5816 12.6635 12.6893 12.5919 12.9066C12.4674 13.284 12.0605 13.4892 11.6831 13.3649C11.3059 13.2404 11.1007 12.8334 11.2248 12.4561C11.3891 11.9578 11.6446 11.6427 11.9122 11.406C12.0312 11.3009 12.1576 11.2076 12.2412 11.1439C12.3342 11.0729 12.397 11.0221 12.4492 10.9696C12.5631 10.8549 12.5779 10.6725 12.5181 10.5668C12.4136 10.3827 12.2188 10.2592 12.0148 10.2414C11.8375 10.2262 11.6005 10.287 11.3809 10.5872C11.1462 10.9078 10.6958 10.9778 10.3751 10.7433C10.0544 10.5087 9.98401 10.0583 10.2184 9.73748C10.72 9.05146 11.4349 8.74692 12.1385 8.8076Z" fill="#475467"/>
<path d="M17.5999 12C17.5999 8.90725 15.0927 6.40005 11.9999 6.40005C8.90713 6.40005 6.39993 8.90725 6.39993 12C6.39993 15.0928 8.90713 17.6 11.9999 17.6V19.2C8.02348 19.2 4.79993 15.9765 4.79993 12C4.79993 8.0236 8.02348 4.80005 11.9999 4.80005C15.9764 4.80005 19.1999 8.0236 19.1999 12C19.1999 15.9765 15.9764 19.2 11.9999 19.2V17.6C15.0927 17.6 17.5999 15.0928 17.5999 12Z" fill="#475467"/>
<path d="M17.5999 12C17.5999 8.90725 15.0927 6.40005 11.9999 6.40005C8.90713 6.40005 6.39993 8.90725 6.39993 12C6.39993 15.0928 8.90713 17.6 11.9999 17.6V19.2C8.02348 19.2 4.79993 15.9765 4.79993 12C4.79993 8.0236 8.02348 4.80005 11.9999 4.80005C15.9764 4.80005 19.1999 8.0236 19.1999 12C19.1999 15.9765 15.9764 19.2 11.9999 19.2V17.6C15.0927 17.6 17.5999 15.0928 17.5999 12Z" fill="#475467"/>
</svg>
