<svg width="32" height="32" viewBox="0 0 32 32" fill="none" xmlns="http://www.w3.org/2000/svg">
<path d="M25.3333 16C25.3333 15.0732 25.1969 14.1784 24.9453 13.3333H21.4154C21.6924 15.1336 21.702 16.8733 21.4388 18.6667H24.9453C25.1969 17.8216 25.3333 16.9268 25.3333 16ZM14.2227 21.3333C14.6165 22.5683 15.1421 23.8827 15.8086 25.3281C15.8723 25.3294 15.936 25.3333 16 25.3333C16.1647 25.3333 16.3283 25.3287 16.4909 25.3203C17.1557 23.8778 17.681 22.5662 18.0742 21.3333H14.2227ZM8.34245 21.3333C9.3956 22.8426 10.8827 24.0244 12.6237 24.7005C12.1425 23.5363 11.7467 22.4215 11.4388 21.3333H8.34245ZM20.8594 21.3333C20.5645 22.3756 20.1885 23.4423 19.7344 24.5534C21.3214 23.8595 22.6773 22.7381 23.6576 21.3333H20.8594ZM13.5859 13.3333C13.2553 15.1887 13.2586 16.9016 13.5612 18.6667H18.7357C19.0382 16.9016 19.0429 15.1887 18.7122 13.3333H13.5859ZM19.7018 7.43099C20.1548 8.55733 20.529 9.62919 20.8229 10.6667H23.6576C22.6705 9.25215 21.3031 8.12367 19.7018 7.43099ZM15.8177 6.67057C15.1644 8.11668 14.6471 9.43437 14.2565 10.6667H18.0417C17.6517 9.43637 17.1336 8.12173 16.4818 6.67839C16.3222 6.67027 16.1616 6.66667 16 6.66667C15.9391 6.66667 15.8783 6.66941 15.8177 6.67057ZM12.651 7.28646C10.8979 7.9607 9.40127 9.14925 8.34245 10.6667H11.474C11.7804 9.58517 12.1718 8.46539 12.651 7.28646ZM6.66667 16C6.66667 16.9268 6.80314 17.8216 7.05469 18.6667H10.8594C10.5962 16.8733 10.6045 15.1337 10.8815 13.3333H7.05469C6.80314 14.1784 6.66667 15.0732 6.66667 16ZM28 16C28 22.6274 22.6274 28 16 28C9.37258 28 4 22.6274 4 16C4 9.37258 9.37258 4 16 4C22.6274 4 28 9.37258 28 16Z" fill="#0E151C"/>
</svg>
