<svg width="16" height="16" viewBox="0 0 16 16" fill="none" xmlns="http://www.w3.org/2000/svg">
<path d="M3.55539 8.9335C3.30848 8.9335 3.0987 8.84265 2.92606 8.66096C2.75302 8.47969 2.6665 8.25942 2.6665 8.00016C2.6665 7.7409 2.75302 7.52064 2.92606 7.33936C3.0987 7.15767 3.30848 7.06683 3.55539 7.06683C3.80231 7.06683 4.01208 7.15767 4.18473 7.33936C4.35776 7.52064 4.44428 7.7409 4.44428 8.00016C4.44428 8.25942 4.35776 8.47969 4.18473 8.66096C4.01208 8.84265 3.80231 8.9335 3.55539 8.9335ZM3.55539 5.20016C3.30848 5.20016 3.0987 5.10932 2.92606 4.92763C2.75302 4.74636 2.6665 4.52609 2.6665 4.26683C2.6665 4.00757 2.75302 3.7873 2.92606 3.60603C3.0987 3.42434 3.30848 3.3335 3.55539 3.3335C3.80231 3.3335 4.01208 3.42434 4.18473 3.60603C4.35776 3.7873 4.44428 4.00757 4.44428 4.26683C4.44428 4.52609 4.35776 4.74636 4.18473 4.92763C4.01208 5.10932 3.80231 5.20016 3.55539 5.20016ZM3.55539 12.6668C3.30848 12.6668 3.0987 12.576 2.92606 12.3943C2.75302 12.213 2.6665 11.9928 2.6665 11.7335C2.6665 11.4742 2.75302 11.254 2.92606 11.0727C3.0987 10.891 3.30848 10.8002 3.55539 10.8002C3.80231 10.8002 4.01208 10.891 4.18473 11.0727C4.35776 11.254 4.44428 11.4742 4.44428 11.7335C4.44428 11.9928 4.35776 12.213 4.18473 12.3943C4.01208 12.576 3.80231 12.6668 3.55539 12.6668ZM6.22206 12.3557C6.05416 12.3557 5.91352 12.296 5.80013 12.1765C5.68636 12.0575 5.62947 11.9098 5.62947 11.7335C5.62947 11.5572 5.68636 11.4095 5.80013 11.2905C5.91352 11.171 6.05416 11.1113 6.22206 11.1113H12.7406C12.9085 11.1113 13.0491 11.171 13.1625 11.2905C13.2763 11.4095 13.3332 11.5572 13.3332 11.7335C13.3332 11.9098 13.2763 12.0575 13.1625 12.1765C13.0491 12.296 12.9085 12.3557 12.7406 12.3557H6.22206ZM6.22206 8.62238C6.05416 8.62238 5.91352 8.56265 5.80013 8.44318C5.68636 8.32413 5.62947 8.17646 5.62947 8.00016C5.62947 7.82387 5.68636 7.67598 5.80013 7.55652C5.91352 7.43747 6.05416 7.37794 6.22206 7.37794H12.7406C12.9085 7.37794 13.0491 7.43747 13.1625 7.55652C13.2763 7.67598 13.3332 7.82387 13.3332 8.00016C13.3332 8.17646 13.2763 8.32413 13.1625 8.44318C13.0491 8.56265 12.9085 8.62238 12.7406 8.62238H6.22206ZM6.22206 4.88905C6.05416 4.88905 5.91352 4.82953 5.80013 4.71047C5.68636 4.59101 5.62947 4.44313 5.62947 4.26683C5.62947 4.09053 5.68636 3.94265 5.80013 3.82319C5.91352 3.70413 6.05416 3.64461 6.22206 3.64461H12.7406C12.9085 3.64461 13.0491 3.70413 13.1625 3.82319C13.2763 3.94265 13.3332 4.09053 13.3332 4.26683C13.3332 4.44313 13.2763 4.59101 13.1625 4.71047C13.0491 4.82953 12.9085 4.88905 12.7406 4.88905H6.22206Z" fill="#0E151C"/>
</svg>
