<svg width="32" height="32" viewBox="0 0 32 32" fill="none" xmlns="http://www.w3.org/2000/svg">
<path d="M4.83333 7.86658H6.4H25.6H27.1667C27.6269 7.86658 28 8.23967 28 8.69991V24.2093C28 24.6695 27.6269 25.0426 27.1667 25.0426H18.7236C18.5155 25.0426 18.3175 25.1241 18.1528 25.2514C17.6146 25.6679 16.9764 25.9084 16 25.8605C15.0236 25.9084 14.3854 25.6679 13.8472 25.2514C13.6825 25.1241 13.4846 25.0426 13.2764 25.0426H4.83333C4.3731 25.0426 4 24.6695 4 24.2093V8.69991C4 8.23967 4.37309 7.86658 4.83333 7.86658Z" fill="#4EA8E7"/>
<g filter="url(#filter0_i_523_34645)">
<path d="M15.8727 7.45724C17.6515 5.67832 22.9879 7.45677 26.5456 7.45724V23.467C22.0987 23.4669 18.5409 21.6882 15.8727 23.467C13.2045 21.6882 9.64692 23.467 5.19987 23.467V7.45724C8.75731 7.4569 14.0936 5.67876 15.8727 7.45724Z" fill="white"/>
</g>
<path d="M15.8727 7.45724L15.4014 7.92873C15.6618 8.18901 16.0838 8.18896 16.3442 7.92863L15.8727 7.45724ZM26.5456 7.45724H27.2122C27.2122 7.08909 26.9138 6.79063 26.5457 6.79058L26.5456 7.45724ZM26.5456 23.467L26.5456 24.1337C26.7224 24.1337 26.8919 24.0634 27.017 23.9384C27.142 23.8134 27.2122 23.6438 27.2122 23.467H26.5456ZM15.8727 23.467L15.5029 24.0217C15.7269 24.171 16.0186 24.171 16.2425 24.0217L15.8727 23.467ZM5.19987 23.467H4.53321C4.53321 23.6438 4.60345 23.8134 4.72847 23.9384C4.85349 24.0634 5.02306 24.1337 5.19988 24.1337L5.19987 23.467ZM5.19987 7.45724L5.19981 6.79058C4.83165 6.79061 4.53321 7.08908 4.53321 7.45724H5.19987ZM15.8727 7.45724L16.3442 7.92863C16.6311 7.64165 17.117 7.44662 17.8591 7.36982C18.5925 7.29391 19.4804 7.3428 20.4685 7.45256C21.4598 7.56268 22.4879 7.72562 23.5379 7.86754C24.57 8.00704 25.6082 8.12378 26.5455 8.12391L26.5456 7.45724L26.5457 6.79058C25.7041 6.79046 24.7412 6.68473 23.7165 6.54622C22.7097 6.41014 21.6255 6.23956 20.6157 6.12738C19.6026 6.01483 18.6005 5.95263 17.7218 6.04357C16.8519 6.13361 16.0037 6.38338 15.4013 6.98586L15.8727 7.45724ZM26.5456 7.45724H25.8789V23.467H26.5456H27.2122V7.45724H26.5456ZM26.5456 23.467L26.5456 22.8003C24.3761 22.8003 22.484 22.3708 20.6248 22.1384C18.8244 21.9134 17.052 21.8796 15.5029 22.9123L15.8727 23.467L16.2425 24.0217C17.3616 23.2757 18.7022 23.2418 20.4595 23.4615C22.158 23.6737 24.2681 24.1336 26.5456 24.1337L26.5456 23.467ZM15.8727 23.467L16.2425 22.9123C14.6934 21.8796 12.9211 21.9134 11.1207 22.1384C9.26156 22.3708 7.36939 22.8003 5.19987 22.8003L5.19987 23.467L5.19988 24.1337C7.4774 24.1337 9.58755 23.6738 11.286 23.4615C13.0433 23.2418 14.3838 23.2756 15.5029 24.0217L15.8727 23.467ZM5.19987 23.467H5.86654V7.45724H5.19987H4.53321V23.467H5.19987ZM5.19987 7.45724L5.19994 8.12391C6.13713 8.12382 7.17537 8.00712 8.20739 7.86766C9.25736 7.72578 10.2855 7.56288 11.2768 7.45277C12.2648 7.34303 13.1527 7.29414 13.8862 7.37002C14.6283 7.4468 15.1144 7.64179 15.4014 7.92873L15.8727 7.45724L16.344 6.98576C15.7415 6.38345 14.8934 6.13377 14.0234 6.04377C13.1448 5.95287 12.1427 6.01507 11.1296 6.12759C10.1197 6.23975 9.03555 6.4103 8.02884 6.54634C7.00417 6.6848 6.04134 6.7905 5.19981 6.79058L5.19987 7.45724Z" fill="#4EA8E7"/>
<path d="M13.9993 12.0319C12.5598 11.9018 10.6967 12.1953 8.86816 12.4543M13.9993 17.3652C12.5598 17.2351 10.6967 17.5287 8.86816 17.7877M17.9991 12.0319C19.4386 11.9018 21.3017 12.1953 23.1302 12.4543M17.9991 17.3652C19.4386 17.2351 21.3017 17.5287 23.1302 17.7877" stroke="#565B61" stroke-width="2.66667" stroke-linecap="round" stroke-linejoin="round"/>
<defs>
<filter id="filter0_i_523_34645" x="4.5332" y="4.33321" width="24.3457" height="19.8005" filterUnits="userSpaceOnUse" color-interpolation-filters="sRGB">
<feFlood flood-opacity="0" result="BackgroundImageFix"/>
<feBlend mode="normal" in="SourceGraphic" in2="BackgroundImageFix" result="shape"/>
<feColorMatrix in="SourceAlpha" type="matrix" values="0 0 0 0 0 0 0 0 0 0 0 0 0 0 0 0 0 0 127 0" result="hardAlpha"/>
<feOffset dx="1.66666" dy="-1.66666"/>
<feGaussianBlur stdDeviation="2.5"/>
<feComposite in2="hardAlpha" operator="arithmetic" k2="-1" k3="1"/>
<feColorMatrix type="matrix" values="0 0 0 0 0.670588 0 0 0 0 0.670588 0 0 0 0 0.670588 0 0 0 0.2 0"/>
<feBlend mode="normal" in2="shape" result="effect1_innerShadow_523_34645"/>
</filter>
</defs>
</svg>
