<svg width="13" height="12" viewBox="0 0 13 12" fill="none" xmlns="http://www.w3.org/2000/svg">
<path d="M11.1 11.5333L7.36667 7.8C7.03333 8.06667 6.65 8.27778 6.21667 8.43333C5.78333 8.58889 5.32222 8.66667 4.83333 8.66667C3.62222 8.66667 2.59733 8.24733 1.75867 7.40867C0.919556 6.56956 0.5 5.54444 0.5 4.33333C0.5 3.12222 0.919556 2.09711 1.75867 1.258C2.59733 0.419333 3.62222 0 4.83333 0C6.04444 0 7.06956 0.419333 7.90867 1.258C8.74733 2.09711 9.16667 3.12222 9.16667 4.33333C9.16667 4.82222 9.08889 5.28333 8.93333 5.71667C8.77778 6.15 8.56667 6.53333 8.3 6.86667L12.05 10.6167C12.1722 10.7389 12.2333 10.8889 12.2333 11.0667C12.2333 11.2444 12.1667 11.4 12.0333 11.5333C11.9111 11.6556 11.7556 11.7167 11.5667 11.7167C11.3778 11.7167 11.2222 11.6556 11.1 11.5333ZM4.83333 7.33333C5.66667 7.33333 6.37511 7.04178 6.95867 6.45867C7.54178 5.87511 7.83333 5.16667 7.83333 4.33333C7.83333 3.5 7.54178 2.79156 6.95867 2.208C6.37511 1.62489 5.66667 1.33333 4.83333 1.33333C4 1.33333 3.29156 1.62489 2.708 2.208C2.12489 2.79156 1.83333 3.5 1.83333 4.33333C1.83333 5.16667 2.12489 5.87511 2.708 6.45867C3.29156 7.04178 4 7.33333 4.83333 7.33333Z" fill="#1F2122"/>
</svg>
