<svg width="32" height="32" viewBox="0 0 32 32" fill="none" xmlns="http://www.w3.org/2000/svg">
<rect x="5.33334" y="5.33337" width="21.3333" height="21.3333" rx="2.66667" fill="#05CD73"/>
<path d="M20.8892 16.0001C20.8892 13.3 18.7004 11.1112 16.0003 11.1112C13.3003 11.1112 11.1114 13.3 11.1114 16.0001C11.1114 18.7001 13.3003 20.889 16.0003 20.889V23.3334C11.9502 23.3334 8.66699 20.0502 8.66699 16.0001C8.66699 11.95 11.9502 8.66675 16.0003 8.66675C20.0504 8.66675 23.3337 11.95 23.3337 16.0001C23.3337 20.0502 20.0504 23.3334 16.0003 23.3334V20.889C18.7004 20.889 20.8892 18.7001 20.8892 16.0001Z" fill="white"/>
<path d="M11.9711 14.9841C11.969 14.9716 11.967 14.9591 11.9651 14.9464C11.8586 14.2293 11.247 13.8286 10.5242 13.8853C10.1419 13.9152 9.97825 13.4745 10.1006 13.1111L10.2828 12.5699C10.3878 12.2582 10.5938 11.9906 10.8683 11.8094L13.4216 10.1242C13.6585 9.96792 13.9127 9.83963 14.1791 9.74193L15.6777 9.19244C16.5262 8.88134 17.4781 9.17087 18.0096 9.90173C18.2906 10.2881 18.4258 10.7615 18.3911 11.238L18.3231 12.1734C18.2628 13.002 17.6873 13.7028 16.8862 13.9231L16.5516 14.0152C16.2023 14.1112 15.9137 14.3574 15.7638 14.6872C15.6008 15.0456 15.8148 15.4622 16.201 15.5387L18.2225 15.939L20.1133 16.4069C20.3327 16.4612 20.5412 16.5526 20.7298 16.6771C21.53 17.2052 21.8383 18.2299 21.4625 19.1119L20.8846 20.4679C20.6067 21.12 20.0464 21.6096 19.363 21.7976C18.6464 21.9946 17.8789 21.8371 17.2979 21.3737L16.8666 21.0298C16.3483 20.6165 16.1498 19.9197 16.3724 19.2953L16.5737 18.7306C16.8358 17.9954 16.2907 17.2223 15.5102 17.2223C15.4298 17.2223 15.349 17.2135 15.2704 17.1968C13.8853 16.9013 13.3863 16.8715 13.2542 16.1967C13.2211 16.0276 13.2131 15.8449 13.1123 15.7052C13.0163 15.5723 12.8593 15.4858 12.5401 15.4336C12.2744 15.3901 12.0168 15.2494 11.9711 14.9841Z" fill="white"/>
</svg>
