<svg width="32" height="32" viewBox="0 0 32 32" fill="none" xmlns="http://www.w3.org/2000/svg">
<path d="M9.33368 12L22.667 12" stroke="#2079BD" stroke-width="2.66667" stroke-linecap="round"/>
<path d="M9.33368 16L22.667 16" stroke="#2079BD" stroke-width="2.66667" stroke-linecap="round"/>
<path d="M9.33368 20L22.667 20" stroke="#2079BD" stroke-width="2.66667" stroke-linecap="round"/>
<path d="M17.8898 5.46469L6.44552 7.3956C5.80381 7.50387 5.33401 8.05957 5.33401 8.71035V23.318C5.33401 23.9735 5.81043 24.5317 6.45775 24.6348L17.1244 26.3326C17.9342 26.4615 18.6673 25.8359 18.6673 25.0159V16.2577V6.12207C18.6673 5.70957 18.2965 5.39606 17.8898 5.46469Z" fill="#2079BD" stroke="#2079BD" stroke-width="2.66667"/>
<path d="M19.5567 7.70374H25.3344C26.0708 7.70374 26.6678 8.30069 26.6678 9.03707V22.963C26.6678 23.6994 26.0708 24.2963 25.3344 24.2963H19.5567" stroke="#2079BD" stroke-width="2.66667"/>
<path d="M9.59593 20.1157L7.20087 12.6667H8.84681L10.5983 18.3959H9.95466L11.6639 12.6667H12.9617L14.6709 18.3959H14.0379L15.7788 12.6667H17.4142L15.0191 20.1157H13.7213L12.0015 14.3865H12.6135L10.8937 20.1157H9.59593Z" fill="white"/>
</svg>
