<svg width="16" height="16" viewBox="0 0 16 16" fill="none" xmlns="http://www.w3.org/2000/svg">
<path d="M8.00001 12.6667C7.81112 12.6667 7.6529 12.6027 7.52534 12.4747C7.39734 12.3472 7.33334 12.1889 7.33334 12V8.66671H4.00001C3.81112 8.66671 3.65268 8.60271 3.52468 8.47471C3.39712 8.34715 3.33334 8.18893 3.33334 8.00004C3.33334 7.81115 3.39712 7.65271 3.52468 7.52471C3.65268 7.39715 3.81112 7.33337 4.00001 7.33337H7.33334V4.00004C7.33334 3.81115 7.39734 3.65271 7.52534 3.52471C7.6529 3.39715 7.81112 3.33337 8.00001 3.33337C8.1889 3.33337 8.34734 3.39715 8.47534 3.52471C8.6029 3.65271 8.66668 3.81115 8.66668 4.00004V7.33337H12C12.1889 7.33337 12.3471 7.39715 12.4747 7.52471C12.6027 7.65271 12.6667 7.81115 12.6667 8.00004C12.6667 8.18893 12.6027 8.34715 12.4747 8.47471C12.3471 8.60271 12.1889 8.66671 12 8.66671H8.66668V12C8.66668 12.1889 8.6029 12.3472 8.47534 12.4747C8.34734 12.6027 8.1889 12.6667 8.00001 12.6667Z" fill="#1F2122"/>
</svg>
