<svg width="20" height="20" viewBox="0 0 20 20" fill="none" xmlns="http://www.w3.org/2000/svg">
<path d="M7.95803 14.6459C7.84692 14.6459 7.74275 14.6284 7.64553 14.5934C7.54831 14.5589 7.45803 14.5 7.3747 14.4167L3.79136 10.8334C3.63858 10.6806 3.56553 10.4825 3.5722 10.2392C3.57942 9.99643 3.65942 9.79865 3.8122 9.64587C3.96497 9.4931 4.15942 9.41671 4.39553 9.41671C4.63164 9.41671 4.82608 9.4931 4.97886 9.64587L7.95803 12.625L15.0205 5.56254C15.1733 5.40976 15.3714 5.33337 15.6147 5.33337C15.8575 5.33337 16.0553 5.40976 16.208 5.56254C16.3608 5.71532 16.4372 5.9131 16.4372 6.15587C16.4372 6.39921 16.3608 6.59726 16.208 6.75004L8.54136 14.4167C8.45803 14.5 8.36775 14.5589 8.27053 14.5934C8.17331 14.6284 8.06914 14.6459 7.95803 14.6459V14.6459Z" fill="#0E151C"/>
</svg>
