<svg width="20" height="20" viewBox="0 0 20 20" fill="none" xmlns="http://www.w3.org/2000/svg">
<path d="M10.498 10.5835C10.7281 10.185 11.238 10.0484 11.6366 10.2783C12.0351 10.5085 12.1718 11.0183 11.9417 11.4168L10.3841 14.1154C10.0553 14.6847 9.27513 14.7877 8.81022 14.3229L7.74414 13.256C7.41873 12.9306 7.41878 12.4031 7.74414 12.0776C8.04923 11.7725 8.53173 11.7537 8.85904 12.0207L8.92252 12.0776L9.37418 12.5293L10.498 10.5835Z" fill="#0E151C"/>
<path d="M10.498 5.5835C10.7281 5.18499 11.238 5.04838 11.6366 5.27832C12.0351 5.50846 12.1718 6.01828 11.9417 6.41683L10.3841 9.1154C10.0553 9.68469 9.27513 9.78773 8.81022 9.32292L7.74414 8.25602C7.41873 7.93061 7.41878 7.40308 7.74414 7.07764C8.04923 6.77254 8.53173 6.75371 8.85904 7.02067L8.92252 7.07764L9.37418 7.5293L10.498 5.5835Z" fill="#0E151C"/>
<path fill-rule="evenodd" clip-rule="evenodd" d="M15 2.5C15.9205 2.5 16.6667 3.24619 16.6667 4.16667V15.8333C16.6667 16.7538 15.9205 17.5 15 17.5H4.99999C4.13695 17.5 3.4275 16.844 3.34228 16.0034L3.33333 15.8333V4.16667C3.33333 3.24619 4.07952 2.5 4.99999 2.5H15ZM4.99999 15.8333H15V4.16667H4.99999V15.8333Z" fill="#0E151C"/>
</svg>
