<svg width="20" height="20" viewBox="0 0 20 20" fill="none" xmlns="http://www.w3.org/2000/svg">
<path d="M15.2441 3.57757C15.5696 3.25214 16.0971 3.25214 16.4225 3.57757C16.7479 3.90301 16.7479 4.43052 16.4225 4.75596L11.1784 10.0001L16.4225 15.2442C16.7479 15.5697 16.7479 16.0972 16.4225 16.4226C16.0971 16.7481 15.5696 16.7481 15.2441 16.4226L9.99998 11.1785L4.75584 16.4226C4.4304 16.7481 3.90289 16.7481 3.57745 16.4226C3.25201 16.0972 3.25201 15.5697 3.57745 15.2442L8.82159 10.0001L3.57745 4.75596C3.25201 4.43052 3.25201 3.90301 3.57745 3.57757C3.90289 3.25214 4.4304 3.25214 4.75584 3.57757L9.99998 8.82171L15.2441 3.57757Z" fill="#0E151C"/>
</svg>
