<svg width="32" height="32" viewBox="0 0 32 32" fill="none" xmlns="http://www.w3.org/2000/svg">
<rect x="5.33325" y="5.33325" width="21.3333" height="21.3333" rx="2.66667" fill="#8F4FF5"/>
<path d="M10.9629 10.074C11.2902 10.074 11.5553 10.3392 11.5554 10.6664V11.8513C11.5554 12.1786 11.2902 12.4438 10.9629 12.4438H9.77803C9.45082 12.4437 9.18558 12.1786 9.18558 11.8513V10.6664C9.18566 10.3393 9.45087 10.0741 9.77803 10.074H10.9629ZM21.6296 10.074C22.284 10.074 22.8156 10.6045 22.8158 11.2589C22.8158 11.9134 22.2841 12.4437 21.6296 12.4438H14.5189C13.8644 12.4438 13.334 11.9134 13.334 11.2589C13.3342 10.6045 13.8645 10.074 14.5189 10.074H21.6296Z" fill="white"/>
<path d="M10.9629 14.8147C11.2901 14.8147 11.5553 15.08 11.5553 15.4072V16.5921C11.5553 16.9194 11.2902 17.1845 10.9629 17.1845H9.77799C9.45078 17.1844 9.18555 16.9193 9.18555 16.5921V15.4072C9.18562 15.08 9.45083 14.8148 9.77799 14.8147H10.9629ZM21.6296 14.8147C22.284 14.8148 22.8156 15.3452 22.8158 15.9996C22.8158 16.6542 22.2841 17.1845 21.6296 17.1845H14.5189C13.8643 17.1845 13.334 16.6542 13.334 15.9996C13.3342 15.3452 13.8644 14.8147 14.5189 14.8147H21.6296Z" fill="white"/>
<path d="M10.9629 19.5555C11.2901 19.5555 11.5553 19.8207 11.5553 20.1479V21.3328C11.5553 21.6601 11.2902 21.9253 10.9629 21.9253H9.77799C9.45078 21.9252 9.18555 21.66 9.18555 21.3328V20.1479C9.18562 19.8208 9.45083 19.5556 9.77799 19.5555H10.9629ZM21.6296 19.5555C22.284 19.5555 22.8156 20.086 22.8158 20.7404C22.8158 21.3949 22.2841 21.9252 21.6296 21.9253H14.5189C13.8643 21.9253 13.334 21.3949 13.334 20.7404C13.3342 20.086 13.8644 19.5555 14.5189 19.5555H21.6296Z" fill="white"/>
</svg>
