<svg width="32" height="32" viewBox="0 0 32 32" fill="none" xmlns="http://www.w3.org/2000/svg">
<rect x="5.3336" y="5.33337" width="21.3333" height="21.3333" rx="2.66667" fill="#1AAEE5"/>
<path d="M12.1667 11.8287C12.3893 11.768 12.6203 11.8953 12.6826 12.1127L12.8405 12.6635L18.6467 11.0754L18.4888 10.5246C18.4267 10.3072 18.5571 10.0815 18.7796 10.0206L19.9085 9.71186C20.131 9.65118 20.3618 9.77803 20.4242 9.99524L21.8239 14.8789C21.8862 15.0963 21.7565 15.3223 21.534 15.3833L20.4051 15.6921C20.1824 15.753 19.9508 15.6257 19.8885 15.4082L19.7303 14.8561L17.7941 15.3857L19.4196 21.0572C19.5691 21.5791 19.2574 22.1206 18.7231 22.2668C18.1889 22.4128 17.6346 22.1082 17.4849 21.5863L15.8594 15.9149L13.924 16.4442L14.0823 16.9964C14.1444 17.2137 14.0145 17.4392 13.7922 17.5001L12.6633 17.8089C12.4407 17.8698 12.2093 17.743 12.1469 17.5257L10.7472 12.6421C10.6849 12.4246 10.8151 12.1984 11.0378 12.1375L12.1667 11.8287Z" fill="white"/>
<path d="M12.0391 12.2107C12.0337 12.1921 12.0175 12.1796 11.9993 12.1774L11.9816 12.1785L10.8527 12.4873C10.8278 12.4941 10.813 12.5199 10.8199 12.5442L12.2196 17.4278L12.2278 17.4432C12.2391 17.4572 12.2585 17.4643 12.2776 17.4591L13.4065 17.1503L13.423 17.1421C13.4323 17.1347 13.4385 17.124 13.4401 17.1124L13.4387 17.0943L13.1802 16.1923L15.8319 15.4671L17.5576 21.4884L17.5785 21.5482C17.6958 21.8398 18.022 22.0031 18.3374 21.9169C18.6738 21.8249 18.8702 21.4839 18.7761 21.1551L17.0503 15.1338L19.7027 14.4083L19.9612 15.3103C19.9682 15.3346 19.9945 15.3491 20.0194 15.3423L21.1483 15.0335L21.1641 15.0255C21.1784 15.0144 21.1857 14.9955 21.1804 14.9768L19.7807 10.0932C19.7754 10.0752 19.7597 10.0627 19.7419 10.0603L19.7234 10.0617L18.5945 10.3705C18.5693 10.3774 18.5549 10.4029 18.5615 10.4267L18.8197 11.3273L12.2972 13.1113L12.0391 12.2107ZM21.8966 14.7809C22.0068 15.1653 21.7989 15.5641 21.426 15.7077L21.3489 15.7332L20.2199 16.042C19.7995 16.157 19.3627 15.9169 19.245 15.5062L19.187 15.3039L17.9671 15.6376L19.4923 20.9592L19.5233 21.0937C19.6344 21.7203 19.2777 22.3401 18.6717 22.5727L18.538 22.6166C17.8059 22.8167 17.0464 22.3993 16.8414 21.6843L15.3162 16.3627L14.097 16.6961L14.155 16.8984L14.1727 16.9761C14.2361 17.3355 14.0316 17.6908 13.6842 17.8245L13.607 17.85L12.4781 18.1588C12.0583 18.2736 11.6214 18.0345 11.5033 17.6237L10.1037 12.7401C9.98596 12.3293 10.2317 11.9026 10.6521 11.7876L11.781 11.4788L11.8606 11.4615C12.2555 11.395 12.6452 11.6304 12.7553 12.0148L12.8129 12.2157L17.9029 10.8235L17.8453 10.6226C17.7279 10.2116 17.9741 9.78561 18.3939 9.67079L19.5229 9.362C19.943 9.2474 20.379 9.48715 20.4969 9.89729L21.8966 14.7809Z" fill="white"/>
<path d="M17.42 12.7034L17.4938 12.6869C17.8653 12.6238 18.233 12.8448 18.3368 13.2072C18.4407 13.5696 18.2439 13.945 17.8929 14.0795L17.8211 14.1028L14.7267 14.9492C14.3311 15.0574 13.9207 14.8318 13.8099 14.4454C13.6992 14.0589 13.93 13.658 14.3256 13.5498L17.42 12.7034Z" fill="#1AAEE5"/>
</svg>
