<svg width="20" height="20" viewBox="0 0 20 20" fill="none" xmlns="http://www.w3.org/2000/svg">
<path d="M9.16665 15.0787H10.8333V11.5057H9.16665V15.0787ZM12.5 15.0787H15V9.84946L9.99998 5.08545L4.99998 9.84946V15.0787H7.49998V11.1087C7.49998 10.4509 8.05962 9.9177 8.74998 9.9177H11.25C11.9403 9.9177 12.5 10.4509 12.5 11.1087V15.0787ZM16.6666 15.4757C16.6666 16.1335 16.107 16.6667 15.4166 16.6667H4.58331C3.89296 16.6667 3.33331 16.1335 3.33331 15.4757V9.68508C3.33333 9.36923 3.46512 9.06635 3.69952 8.843L9.11619 3.68199L9.21141 3.60058C9.70236 3.21907 10.4261 3.24599 10.8838 3.68199L16.3004 8.843C16.5348 9.06635 16.6666 9.36923 16.6666 9.68508V15.4757Z" fill="#475467"/>
</svg>
