<svg width="16" height="16" viewBox="0 0 16 16" fill="none" xmlns="http://www.w3.org/2000/svg">
<path d="M8.83334 4.16667C8.83334 3.70643 8.46024 3.33333 8.00001 3.33333C7.53977 3.33333 7.16667 3.70643 7.16667 4.16667V7.2207C7.16667 7.68094 7.53977 8.05404 8.00001 8.05404C8.46024 8.05404 8.83334 7.68094 8.83334 7.2207V4.16667ZM10.1667 7.2207C10.1667 8.41732 9.19662 9.38737 8.00001 9.38737C6.80339 9.38737 5.83334 8.41732 5.83334 7.2207V4.16667C5.83334 2.97005 6.80339 2 8.00001 2C9.19662 2 10.1667 2.97005 10.1667 4.16667V7.2207Z" fill="#0E151C"/>
<path d="M3.99994 7.87386C3.99994 7.50567 4.29842 7.20719 4.66661 7.20719C5.0348 7.20719 5.33327 7.50567 5.33327 7.87386C5.33327 9.16176 6.36777 10.211 7.65554 10.2293L8.0097 10.2345H8.30593C9.60952 10.2345 10.6666 9.17745 10.6666 7.87386C10.6666 7.50567 10.9651 7.20719 11.3333 7.20719C11.7015 7.20719 11.9999 7.50567 11.9999 7.87386C11.9999 9.79223 10.5374 11.3685 8.66661 11.5496V12.6668H9.33327C9.70146 12.6668 9.99994 12.9653 9.99994 13.3335C9.99985 13.7016 9.70141 14.0002 9.33327 14.0002H6.66661C6.29847 14.0002 6.00003 13.7016 5.99994 13.3335C5.99994 12.9653 6.29842 12.6668 6.66661 12.6668H7.33327V11.5444C5.4599 11.3649 3.99994 9.78857 3.99994 7.87386Z" fill="#0E151C"/>
</svg>
