<svg width="32" height="32" viewBox="0 0 32 32" fill="none" xmlns="http://www.w3.org/2000/svg">
<path d="M7.70639 5.33301H18.9339C19.231 5.33301 19.5139 5.46059 19.7113 5.68262L25.0706 11.7109C25.2399 11.9013 25.3333 12.1476 25.3333 12.4023V25.627C25.3332 26.2012 24.8676 26.667 24.2933 26.667H7.70639C7.13224 26.6668 6.66651 26.2011 6.66635 25.627V6.37305C6.66651 5.7989 7.13224 5.33316 7.70639 5.33301Z" fill="#EF696C" stroke="#EF696C" stroke-width="2.66667"/>
<path d="M9.33368 21.3333V16H11.4378C11.8424 16 12.187 16.0773 12.4717 16.2318C12.7564 16.3845 12.9734 16.5972 13.1227 16.8698C13.2738 17.1406 13.3493 17.4531 13.3493 17.8073C13.3493 18.1615 13.2729 18.474 13.1201 18.7448C12.9674 19.0156 12.746 19.2266 12.4561 19.3776C12.1679 19.5286 11.8189 19.6042 11.4092 19.6042H10.0681V18.7005H11.2269C11.4439 18.7005 11.6227 18.6632 11.7634 18.5885C11.9057 18.5122 12.0116 18.4071 12.0811 18.2734C12.1523 18.138 12.1878 17.9826 12.1878 17.8073C12.1878 17.6302 12.1523 17.4757 12.0811 17.3437C12.0116 17.2101 11.9057 17.1068 11.7634 17.0339C11.621 16.9592 11.4404 16.9219 11.2217 16.9219H10.4613V21.3333H9.33368Z" fill="white"/>
<path d="M15.679 21.3333H13.7884V16H15.6946C16.2311 16 16.6929 16.1068 17.0801 16.3203C17.4672 16.5321 17.765 16.8368 17.9733 17.2344C18.1834 17.6319 18.2884 18.1076 18.2884 18.6615C18.2884 19.217 18.1834 19.6944 17.9733 20.0938C17.765 20.4931 17.4655 20.7995 17.0749 21.013C16.686 21.2266 16.2207 21.3333 15.679 21.3333ZM14.916 20.3672H15.6321C15.9655 20.3672 16.2459 20.3082 16.4733 20.1901C16.7025 20.0703 16.8743 19.8854 16.9889 19.6354C17.1052 19.3837 17.1634 19.059 17.1634 18.6615C17.1634 18.2674 17.1052 17.9453 16.9889 17.6953C16.8743 17.4453 16.7033 17.2613 16.4759 17.1432C16.2485 17.0252 15.9681 16.9661 15.6347 16.9661H14.916V20.3672Z" fill="white"/>
<path d="M18.8303 21.3333V16H22.3616V16.9297H19.9579V18.2005H22.1272V19.1302H19.9579V21.3333H18.8303Z" fill="white"/>
<path d="M18.667 11.5V4H21.3337L24.667 6.66667L26.801 11.5H18.667Z" fill="white"/>
<path d="M18.9346 4C19.6124 4.0001 20.2577 4.29028 20.708 4.79688L26.0674 10.8252C26.246 11.0262 26.3857 11.2554 26.4863 11.5H18.667V4H18.9346Z" fill="#D14A4D"/>
</svg>
