<svg width="32" height="32" viewBox="0 0 32 32" fill="none" xmlns="http://www.w3.org/2000/svg">
<rect x="5.3335" y="5.33325" width="21.3333" height="21.3333" rx="2.66667" fill="#11BDD7"/>
<path d="M11.185 17.2685C11.3646 18.7428 11.6308 19.9016 12.3549 21.7073C12.2846 21.7015 12.2154 21.6976 12.1481 21.6911C10.6459 21.546 9.64766 20.458 9.38125 19.4081C9.24973 18.8895 9.30669 18.4299 9.50358 18.0915C9.69302 17.7662 10.0753 17.4434 10.8121 17.315C10.9265 17.2951 11.0505 17.2802 11.185 17.2685Z" fill="white"/>
<path d="M21.1086 17.2685C20.9291 18.7428 20.6628 19.9016 19.9387 21.7073C20.0091 21.7015 20.0782 21.6976 20.1455 21.6911C21.6477 21.546 22.646 20.458 22.9124 19.4081C23.0439 18.8895 22.9869 18.4299 22.7901 18.0915C22.6006 17.7662 22.2184 17.4434 21.4815 17.315C21.3671 17.2951 21.2432 17.2802 21.1086 17.2685Z" fill="white"/>
<path d="M16.1427 9.33325C17.9701 9.33325 19.4989 10.339 20.505 11.7712C21.5076 13.1983 22.0245 15.0868 21.8447 16.9779C21.8032 17.414 21.4308 17.7327 21.0136 17.6893C20.5966 17.6458 20.2924 17.2573 20.3338 16.8214C20.4765 15.3197 20.0615 13.8214 19.281 12.7104C18.504 11.6044 17.398 10.9203 16.1427 10.9203C14.8875 10.9204 13.7814 11.6044 13.0044 12.7104C12.224 13.8214 11.8096 15.3197 11.9524 16.8214C11.9937 17.2574 11.6889 17.6459 11.2718 17.6893C10.8546 17.7327 10.4829 17.414 10.4415 16.9779C10.2617 15.0868 10.7786 13.1983 11.7811 11.7712C12.7872 10.3391 14.3155 9.33331 16.1427 9.33325Z" fill="white"/>
<path d="M11.3806 16.6057C11.6767 16.5881 11.9068 16.6367 11.9644 16.8516C12.1544 18.6324 12.4028 19.8154 13.3472 22.0623C13.3544 22.0794 13.3609 22.0973 13.3644 22.1156C13.417 22.3961 13.1255 22.6577 12.7506 22.6665L12.6748 22.6651C12.4671 22.6511 12.2579 22.6532 12.049 22.6579L11.6395 22.6658C8.49312 22.6733 7.37817 17.9327 10.6093 16.7287L10.7666 16.6746C10.9566 16.6415 11.1609 16.6188 11.3806 16.6057ZM10.65 18.4807C10.4977 18.6012 10.3998 18.7317 10.3349 18.8529C10.2002 19.1049 10.1474 19.4342 10.2122 19.7922C10.3266 20.4234 10.7371 20.9105 11.315 21.0419C10.9895 20.1034 10.791 19.3098 10.65 18.4807Z" fill="white"/>
<path d="M20.9078 16.6057C20.6118 16.588 20.3817 16.6367 20.324 16.8516C20.1341 18.6324 19.885 19.8153 18.9405 22.0623C18.9334 22.0794 18.9268 22.0973 18.9234 22.1156C18.8707 22.3962 19.1628 22.6579 19.5378 22.6666L19.6137 22.6651C19.9574 22.642 20.3048 22.6619 20.6492 22.6612C23.8708 22.6544 24.9601 17.9359 21.6806 16.7288L21.5211 16.6745C21.3312 16.6415 21.1273 16.6188 20.9078 16.6057ZM21.639 18.4706C21.8126 18.5994 21.9227 18.7391 21.9935 18.8679C22.1316 19.1192 22.1846 19.442 22.1224 19.7897C22.0132 20.3989 21.6013 20.905 20.9744 21.0381C21.3004 20.0975 21.4981 19.3022 21.639 18.4706Z" fill="white"/>
<path d="M14.9422 15.6815C15.2748 15.674 15.5731 15.8941 15.6784 16.2239L16.6748 19.3484L16.9647 18.844L17.021 18.7587C17.1639 18.5707 17.3823 18.4588 17.6156 18.4588H18.3748C18.7941 18.4588 19.134 18.8141 19.134 19.2523C19.134 19.6906 18.7941 20.0459 18.3748 20.0459H18.0456L17.1278 21.6446C16.9752 21.9102 16.6885 22.0589 16.3938 22.025C16.0993 21.9912 15.8508 21.7811 15.757 21.4872L15.0141 19.1586L14.9296 19.4701C14.8365 19.8108 14.5383 20.0459 14.1993 20.0459H13.8197C13.4004 20.0459 13.0605 19.6906 13.0605 19.2523C13.0605 18.8868 13.2971 18.5796 13.6188 18.4875L14.2282 16.2572C14.3197 15.9227 14.6094 15.689 14.9422 15.6815Z" fill="white"/>
</svg>
