<svg width="32" height="32" viewBox="0 0 32 32" fill="none" xmlns="http://www.w3.org/2000/svg">
<rect x="5.5" y="5.71387" width="21.33" height="22.2823" rx="2" fill="#E5BA79"/>
<rect x="7.72168" y="7.42773" width="16.8862" height="18.8543" rx="1" fill="white"/>
<path d="M16.1631 4C17.1447 4 17.9403 4.76731 17.9404 5.71387H20.499C21.0513 5.71387 21.499 6.16158 21.499 6.71387V8.18457C21.499 8.23967 21.4545 8.28495 21.3994 8.28516H16.167V7.42676H16.165V8.28516H10.9326C10.8774 8.28509 10.832 8.23976 10.832 8.18457V6.71387C10.832 6.16166 11.2799 5.71399 11.832 5.71387H14.3857C14.3858 4.76736 15.1815 4.00008 16.1631 4Z" fill="#A2A3A4"/>
<path d="M17.0542 13.427H20.6092" stroke="#565B61" stroke-width="2" stroke-linecap="round"/>
<ellipse cx="11.7213" cy="13.4272" rx="1.7775" ry="1.71403" fill="#D9D9D9"/>
<path d="M17.0542 20.2832H20.6092" stroke="#565B61" stroke-width="2" stroke-linecap="round"/>
<ellipse cx="11.7213" cy="20.2834" rx="1.7775" ry="1.71403" fill="#D9D9D9"/>
</svg>
