<svg width="20" height="20" viewBox="0 0 20 20" fill="none" xmlns="http://www.w3.org/2000/svg">
<path d="M15.8333 10C15.8333 6.77834 13.2217 4.16667 10 4.16667C6.77834 4.16667 4.16667 6.77834 4.16667 10C4.16667 13.2217 6.77834 15.8333 10 15.8333V17.5C5.85786 17.5 2.5 14.1421 2.5 10C2.5 5.85786 5.85786 2.5 10 2.5C14.1421 2.5 17.5 5.85786 17.5 10C17.5 14.1421 14.1421 17.5 10 17.5V15.8333C13.2217 15.8333 15.8333 13.2217 15.8333 10Z" fill="#0E151C"/>
<path d="M9.16667 6.66667C9.16667 6.20643 9.53976 5.83333 10 5.83333C10.4602 5.83333 10.8333 6.20643 10.8333 6.66667V9.58333H12.9167C13.3769 9.58333 13.75 9.95643 13.75 10.4167C13.75 10.8769 13.3769 11.25 12.9167 11.25H10.4167C9.72631 11.25 9.16667 10.6904 9.16667 10V6.66667Z" fill="#0E151C"/>
</svg>
