<svg width="32" height="32" viewBox="0 0 32 32" fill="none" xmlns="http://www.w3.org/2000/svg">
<rect x="5.33359" y="5.33325" width="21.3333" height="21.3333" rx="2.66667" fill="#1EC194"/>
<path d="M11.2439 10.0443H20.5263V19.3268H11.2439V10.0443Z" fill="white"/>
<path d="M11.9672 10.6498V18.7666H19.803V10.6498H11.9672ZM21.3702 18.7666C21.3701 19.567 20.6685 20.216 19.803 20.216H11.9672C11.1017 20.216 10.4001 19.567 10.4 18.7666V10.6498C10.4 9.84936 11.1016 9.20044 11.9672 9.20044H19.803C20.6685 9.20044 21.3702 9.84936 21.3702 10.6498V18.7666Z" fill="white"/>
<path d="M12.0877 22.1959V20.1706H15.4632V22.1959C15.4632 22.4367 15.2181 22.6001 14.9958 22.5075L13.9053 22.0531C13.8222 22.0184 13.7287 22.0184 13.6456 22.0531L12.5551 22.5075C12.3327 22.6001 12.0877 22.4367 12.0877 22.1959Z" fill="white"/>
<path d="M17.5728 12.5759C18.0389 12.5759 18.4167 12.9537 18.4167 13.4197C18.4167 13.8858 18.0389 14.2636 17.5728 14.2636L14.1974 14.2636C13.7313 14.2636 13.3535 13.8858 13.3535 13.4197C13.3535 12.9537 13.7313 12.5759 14.1974 12.5759L17.5728 12.5759Z" fill="#1EC194"/>
</svg>
